<?xml version="1.0" encoding="iso-8859-1"?>
<!-- Generator: Adobe Illustrator 16.0.0, SVG Export Plug-In . SVG Version: 6.00 Build 0)  -->
<!DOCTYPE svg PUBLIC "-//W3C//DTD SVG 1.1//EN" "http://www.w3.org/Graphics/SVG/1.1/DTD/svg11.dtd">
<svg version="1.1" id="Capa_1" xmlns="http://www.w3.org/2000/svg" xmlns:xlink="http://www.w3.org/1999/xlink" x="0px" y="0px"
	 width="224.661px" height="224.66px" viewBox="0 0 224.661 224.66" style="enable-background:new 0 0 224.661 224.66;"
	 xml:space="preserve">
<g >
		<path d="M136.89,63.058H87.807c-0.691,0-1.243,0.555-1.243,1.254v3.771c0,0.689,0.551,1.254,1.243,1.254h49.083
			c0.689,0,1.242-0.565,1.242-1.254v-3.771C138.132,63.606,137.58,63.058,136.89,63.058z"/>
		<path d="M136.89,93.634H87.807c-0.691,0-1.243,0.565-1.243,1.254v3.769c0,0.702,0.551,1.257,1.243,1.257h49.083
			c0.689,0,1.242-0.555,1.242-1.257v-3.769C138.132,94.191,137.58,93.634,136.89,93.634z"/>
		<path d="M204.732,39.694H19.969C8.989,39.694,0,48.691,0,59.665v109.859c0,6.24,2.958,11.758,7.49,15.441h2.479v-14.592H214.69
			v14.592h2.488c4.524-3.684,7.482-9.201,7.482-15.441V59.665C224.693,48.691,215.7,39.694,204.732,39.694z M214.702,154.168
			c0,2.762-2.235,4.998-4.997,4.998H14.994c-2.763,0-5.009-2.236-5.009-4.998v-34.944c0-2.761,2.246-4.989,5.009-4.989h194.719
			c2.77,0,5.006,2.234,5.006,4.989L214.702,154.168L214.702,154.168z M214.702,103.629c0,2.747-2.235,4.991-4.997,4.991H14.994
			c-2.763,0-5.009-2.244-5.009-4.991V88.647c0-2.755,2.246-4.998,5.009-4.998h194.719c2.77,0,5.006,2.242,5.006,4.998
			L214.702,103.629L214.702,103.629z M214.702,73.036c0,2.755-2.235,4.997-4.997,4.997H14.994c-2.763,0-5.009-2.242-5.009-4.997
			V58.054c0-2.747,2.246-4.989,5.009-4.989h194.719c2.77,0,5.006,2.242,5.006,4.989L214.702,73.036L214.702,73.036z"/>
		<path d="M136.89,124.577H87.807c-0.691,0-1.243,0.565-1.243,1.255v3.774c0,0.689,0.551,1.255,1.243,1.255h49.083
			c0.689,0,1.242-0.565,1.242-1.255v-3.774C138.132,125.143,137.58,124.577,136.89,124.577z"/>
</g>
</svg>
