<!--?xml version="1.0" encoding="utf-8"?-->
<!-- Generator: Adobe Illustrator 18.1.1, SVG Export Plug-In . SVG Version: 6.00 Build 0)  -->

<svg version="1.1" id="_x32_" xmlns="http://www.w3.org/2000/svg" xmlns:xlink="http://www.w3.org/1999/xlink" x="0px" y="0px" viewBox="0 0 512 512" style="width: 256px; height: 256px; opacity: 1;" xml:space="preserve">

<g>
	<path d="M451.169,73.382c-9.262-9.286-22.273-15.097-36.447-15.089h-21.687c0.354-6.204,0.618-10.956,0.771-13.684
		c11.958-0.426,21.549-10.202,21.549-22.264C415.355,10.009,405.347,0,393.019,0H68.076C55.739,0,45.735,10.009,45.735,22.345
		c0,12.071,9.596,21.838,21.566,22.264c0.369,6.484,1.413,24.704,2.66,43.902c0.779,11.99,1.63,24.327,2.448,34.488
		c0.409,5.081,0.806,9.616,1.192,13.348c0.193,1.878,0.382,3.547,0.582,5.032c0.2,1.516,0.381,2.777,0.678,4.205
		c12.124,57.748,28.392,96.176,41.006,127.582c6.317,15.708,11.666,29.609,15.39,43.421c3.72,13.837,5.898,27.61,5.911,43.67h1.188
		l-49.822,51.094c-11.004,11.285-16.834,26.229-16.834,41.39c0,7.745,1.528,15.595,4.655,23.011
		C85.62,497.73,107.13,512,130.968,512h99.579h99.576c23.834,0,45.348-14.27,54.606-36.23c3.13-7.424,4.663-15.266,4.663-23.027
		c0-15.169-5.835-30.105-16.839-41.39l-49.826-51.094h1.196c0.012-15.619,2.773-29.36,7.336-43.47
		c3.772-11.717,8.937-23.693,14.651-36.671l2.091,3.925l92.043-49.168l0.265-0.145c16.036-9.166,25.956-26.229,25.956-44.738
		v-80.173C466.274,95.655,460.462,82.653,451.169,73.382z M350.268,433.087c5.229,5.362,7.99,12.432,7.994,19.656
		c0,3.684-0.718,7.384-2.212,10.924c-4.398,10.426-14.611,17.208-25.928,17.208h-99.576h-99.579
		c-11.32,0-21.534-6.782-25.928-17.208c-1.493-3.547-2.207-7.239-2.211-10.924c0.004-7.224,2.76-14.286,7.993-19.656l59.634-61.159
		h120.175L350.268,433.087z M355.533,140.666c-5.834,52.306-20.551,87.002-34.616,118.962c-7.027,15.972-13.966,31.245-19.27,47.563
		c-4.206,12.938-7.232,26.614-8.327,41.398H167.888c-0.846-14.302-3.178-27.514-6.582-40.106
		c-6.501-23.974-16.345-45.757-26.47-71.713c-10.152-25.988-20.82-56.287-29.516-97.597c-0.004,0-0.14-0.778-0.277-1.838
		c-0.55-4.133-1.308-12.665-2.059-22.618c-1.143-15.016-2.332-33.637-3.231-48.477c-0.204-3.395-0.397-6.55-0.57-9.463h262.754
		C360.686,78.239,358.25,116.178,355.533,140.666z M427.355,189.994c0,4.527-2.416,8.692-6.356,10.947l-54.421,29.071
		c8.552-23.83,16.12-51.656,19.893-85.927c1.509-13.613,2.89-30.628,4.045-46.889h24.206c3.547,0.016,6.582,1.388,8.933,3.708
		c2.32,2.343,3.692,5.378,3.7,8.916V189.994z" ></path>
	<path class="st0" d="M179.317,426.402c-8.596,0-15.562,6.974-15.562,15.562c0,8.596,6.966,15.563,15.562,15.563
		c8.596,0,15.563-6.967,15.563-15.563C194.88,433.376,187.913,426.402,179.317,426.402z" ></path>
	<path class="st0" d="M233.786,426.402c-8.593,0-15.563,6.974-15.563,15.562c0,8.596,6.97,15.563,15.563,15.563
		c8.596,0,15.562-6.967,15.562-15.563C249.348,433.376,242.382,426.402,233.786,426.402z" ></path>
	<path class="st0" d="M272.696,441.964c0,8.596,6.967,15.563,15.563,15.563c8.592,0,15.562-6.967,15.562-15.563
		c0-8.588-6.97-15.562-15.562-15.562C279.663,426.402,272.696,433.376,272.696,441.964z" ></path>
</g>
</svg>
